<svg width="209" height="50" viewBox="0 0 209 50" fill="none" xmlns="http://www.w3.org/2000/svg">
<g clip-path="url(#clip0_3386_228)">
<path d="M18.4781 22.3912V28.2608L18.0434 45.8695C15.8694 43.4782 12.826 39.7825 9.99987 36.0869C9.3477 35.2173 8.69552 34.3477 8.26074 33.4782L14.7825 26.3043L18.4781 22.3912Z" fill="#00A47E"/>
<path d="M21.9567 23.261C21.7393 23.261 21.5219 23.261 21.0871 23.261C20.6523 23.261 20.2175 23.261 19.7827 23.0436V19.5653L17.6088 21.7392C17.3914 21.3045 16.9566 20.4349 16.7393 19.7827C16.7393 19.5653 16.7393 19.3479 16.7393 19.1305C16.7393 16.7392 18.6958 14.7827 21.0871 14.7827C21.3045 14.7827 21.3045 14.7827 21.5219 14.7827C21.7393 14.7827 21.9566 14.7827 22.174 14.7827C24.1306 15.2175 25.4349 16.9566 25.4349 18.9131C25.4349 21.0871 23.9132 22.8262 21.9567 23.261Z" fill="#00A47E"/>
<path d="M39.9999 18.913C39.9999 21.9565 38.2608 26.087 35.8695 30.2174C35.6521 30.4348 35.4347 30.6522 35.4347 31.087C34.5651 32.3913 33.6956 33.6957 32.826 34.7826C32.6086 35 32.3912 35.2174 32.3912 35.4348C27.3912 42.3913 21.739 48.2609 21.0869 49.1304L21.739 28.6957C26.739 28.2609 30.8695 24.1304 30.8695 19.1304C30.8695 14.5652 27.826 10.8696 23.6956 9.78261C22.826 9.56522 22.1738 9.56522 21.3043 9.56522C18.4782 9.56522 16.0869 10.6522 14.3477 12.6087C12.3912 14.1304 11.3043 16.3043 11.3043 18.913C11.3043 20.8696 11.739 22.3913 12.826 23.913L6.52165 30.8696C3.91296 26.5217 2.17383 22.3913 2.17383 18.913C2.17383 8.47826 10.6521 0 21.0869 0C31.5217 0 39.9999 8.47826 39.9999 18.913Z" fill="#00A47E"/>
<path d="M39.9999 18.913C39.9999 21.9565 38.2608 26.087 35.8695 30.2174C35.6521 30.4348 35.4347 30.6522 35.4347 31.087C34.5651 32.3913 33.6956 33.6957 32.826 34.7826C32.6086 35 32.3912 35.2174 32.3912 35.4348C27.3912 42.3913 21.739 48.2609 21.0869 49.1304L21.739 28.6957C26.739 28.2609 30.8695 24.1304 30.8695 19.1304C30.8695 14.5652 27.826 10.8696 23.6956 9.78261C22.826 9.56522 22.1738 9.56522 21.3043 9.56522C18.4782 9.56522 16.0869 10.6522 14.3477 12.6087C12.3912 14.1304 11.3043 16.3043 11.3043 18.913C11.3043 20.8696 11.739 22.3913 12.826 23.913L6.52165 30.8696C3.91296 26.5217 2.17383 22.3913 2.17383 18.913C2.17383 8.47826 10.6521 0 21.0869 0C31.5217 0 39.9999 8.47826 39.9999 18.913Z" fill="#00A47E"/>
<path d="M18.4779 22.3912V28.2608C17.3909 28.0434 16.5214 27.6086 15.6518 26.9564C15.4344 26.739 14.9996 26.5217 14.7822 26.3043L18.4779 22.3912Z" fill="white"/>
<path d="M25.4349 18.9131C25.4349 21.0871 23.9132 22.8262 21.9567 23.0436C21.7393 23.0436 21.5219 23.0436 21.0871 23.0436C20.6523 23.0436 20.2175 23.0436 19.7827 22.8262V19.3479L17.6088 21.5218C17.3914 21.3045 16.9566 20.4349 16.7393 19.7827C16.7393 19.5653 16.7393 19.3479 16.7393 19.1305C16.7393 16.7392 18.6958 14.7827 21.0871 14.7827C21.3045 14.7827 21.3045 14.7827 21.5219 14.7827C21.7393 14.7827 21.9566 14.7827 22.174 14.7827C23.9132 15.2175 25.4349 16.9566 25.4349 18.9131Z" fill="white"/>
<path d="M18.4783 22.3912L18.6957 22.1738V22.6086V28.2608L18.0435 45.8695V49.9999L10.4348 43.0434L0 42.6086L8.47826 33.4782L15 26.5217L18.4783 22.3912Z" fill="white"/>
<path d="M18.4785 22.3912C18.6959 22.6086 18.6959 22.6086 18.4785 22.3912Z" fill="#00A47E"/>
<path d="M25.4349 18.9131C25.4349 21.0871 23.9132 22.8262 21.9567 23.0436C21.7393 23.0436 21.5219 23.0436 21.0871 23.0436C20.6523 23.0436 20.2175 23.0436 19.7827 22.8262V19.3479L17.6088 21.5218C17.3914 21.3045 16.9566 20.4349 16.7393 19.7827C16.7393 19.5653 16.7393 19.3479 16.7393 19.1305C16.7393 16.7392 18.6958 14.7827 21.0871 14.7827C21.3045 14.7827 21.3045 14.7827 21.5219 14.7827C21.7393 14.7827 21.9566 14.7827 22.174 14.7827C23.9132 15.2175 25.4349 16.9566 25.4349 18.9131Z" fill="#00A47E"/>
<path d="M18.6957 22.1738V22.6086V28.2608L18.0435 45.8695V49.9999L10.4348 43.0434L0 42.6086L8.47826 33.4782L15 26.5217L18.4783 22.3912L18.6957 22.1738Z" fill="white"/>
<path d="M18.6957 22.1738V22.6086V28.2608L18.0435 45.8695V49.9999L10.4348 43.0434L0 42.6086L8.47826 33.4782L15 26.5217L18.4783 22.3912L18.6957 22.1738Z" fill="#FF4714"/>
<path d="M18.6957 22.1738L18.4783 22.3912L15.6522 26.9564L10 36.0869L9.34783 37.1738C8.47826 38.4782 7.3913 39.3477 5.86957 39.9999L0 42.6086L8.47826 33.4782L15 26.3043L18.6957 22.3912V22.1738Z" fill="url(#paint0_linear_3386_228)"/>
<path d="M18.0433 50L10.4346 43.0435H11.5215C12.6085 43.0435 13.6954 43.6956 14.3476 44.5652L18.0433 50Z" fill="url(#paint1_linear_3386_228)"/>
<path d="M50.4353 40.1301L50.6526 41.2171L50.87 40.3475L52.3918 34.6953H53.2613L54.7831 40.3475L55.0005 41.2171L55.2179 40.1301L56.5222 34.6953H57.6092L55.6526 42.7388H54.7831L53.0439 36.8692L52.8266 36.2171L52.6092 36.8692L50.87 42.7388H50.0005L48.0439 34.6953H49.1309L50.4353 40.1301Z" fill="#999999"/>
<path d="M68.261 38.8257C68.261 39.6953 68.0436 40.3475 67.8262 40.9997C67.6088 41.6518 67.174 42.0866 66.7393 42.304C66.3045 42.5214 65.6523 42.7388 65.0001 42.7388C64.348 42.7388 63.6958 42.5214 63.261 42.304C62.8262 42.0866 62.3914 41.6518 62.174 40.9997C61.9567 40.3475 61.7393 39.6953 61.7393 39.0431V38.391C61.7393 37.5214 61.9567 36.8692 62.174 36.4344C62.3914 35.7823 62.8262 35.3475 63.261 35.1301C63.6958 34.9127 64.348 34.6953 65.0001 34.6953C65.6523 34.6953 66.3045 34.9127 66.7393 35.1301C67.174 35.3475 67.6088 35.9997 67.8262 36.4344C68.0436 37.0866 68.261 37.7388 68.261 38.6084V38.8257ZM67.174 38.391C67.174 37.5214 66.9567 36.6518 66.5219 36.2171C66.0871 35.7823 65.6523 35.3475 65.0001 35.3475C64.348 35.3475 63.6958 35.5649 63.4784 36.2171C63.0436 36.6518 62.8262 37.5214 62.8262 38.391V39.0431C62.8262 39.9127 63.0436 40.7823 63.4784 41.2171C63.9132 41.6518 64.348 42.0866 65.0001 42.0866C65.6523 42.0866 66.3045 41.8692 66.5219 41.4344C66.9567 40.9997 67.174 40.1301 67.174 39.2605V38.391Z" fill="#999999"/>
<path d="M75.8697 39.2606H73.9131V42.5215H72.8262V34.478H75.4349C76.3044 34.478 76.9566 34.6954 77.6088 35.1302C78.261 35.565 78.261 36.2172 78.261 36.8693C78.261 37.3041 78.0436 37.7389 77.8262 38.1737C77.6088 38.6085 77.174 38.8259 76.7392 39.0432L78.6957 42.5215H77.6088L75.8697 39.2606ZM74.1305 38.3911H75.8697C76.3044 38.3911 76.7392 38.1737 77.174 37.9563C77.3914 37.7389 77.6088 37.3041 77.6088 36.8693C77.6088 36.4345 77.3914 35.9998 77.174 35.7824C76.9566 35.565 76.5218 35.3476 75.8697 35.3476H74.1305V38.3911Z" fill="#999999"/>
<path d="M83.2617 42.5215V34.478H85.653C86.3052 34.478 86.9574 34.6954 87.6095 34.9128C88.2617 35.1302 88.4791 35.565 88.9139 36.2172C89.1313 36.8693 89.3487 37.5215 89.3487 38.1737V38.6085C89.3487 39.478 89.1313 40.1302 88.9139 40.565C88.6965 41.2172 88.2617 41.6519 87.6095 41.8693C86.9574 42.0867 86.5226 42.3041 85.653 42.3041H83.2617V42.5215ZM84.3487 35.3476V41.6519H85.4356C86.3052 41.6519 86.9574 41.4345 87.3922 40.7824C87.8269 40.3476 88.0443 39.478 88.0443 38.6085V38.1737C88.0443 37.3041 87.8269 36.4346 87.3922 35.9998C86.9574 35.565 86.3052 35.1302 85.653 35.1302H84.3487V35.3476Z" fill="#999999"/>
<path d="M95 39.4779V42.7388H93.9131V34.6953H96.9566C97.8261 34.6953 98.4783 34.9127 99.1305 35.3475C99.5653 35.7823 99.7827 36.4344 99.7827 37.0866C99.7827 37.9562 99.5653 38.391 99.1305 38.8257C98.6957 39.2605 98.0435 39.4779 96.9566 39.4779H95ZM95 38.6084H96.9566C97.6087 38.6084 98.0435 38.391 98.2609 38.1736C98.4783 37.9562 98.6957 37.5214 98.6957 37.0866C98.6957 36.6518 98.4783 36.2171 98.2609 35.9997C98.0435 35.7823 97.6087 35.5649 96.9566 35.5649H95V38.6084Z" fill="#999999"/>
<path d="M107.174 39.2606H105.218V42.5215H104.131V34.478H106.74C107.609 34.478 108.261 34.6954 108.913 35.1302C109.348 35.565 109.566 36.2172 109.566 36.8693C109.566 37.3041 109.348 37.7389 109.131 38.1737C108.913 38.6085 108.479 38.8259 108.044 39.0432L110 42.5215H108.913L107.174 39.2606ZM105.218 38.3911H106.957C107.392 38.3911 107.827 38.1737 108.261 37.9563C108.479 37.7389 108.696 37.3041 108.696 36.8693C108.696 36.4345 108.479 35.9998 108.261 35.7824C108.044 35.565 107.609 35.3476 106.957 35.3476H105.218V38.3911Z" fill="#999999"/>
<path d="M118.914 38.8259H115.436V41.6519H119.566V42.5215H114.349V34.478H119.566V35.3476H115.653V37.9563H119.131V38.8259H118.914Z" fill="#999999"/>
<path d="M126.522 39.0432C125.652 38.8259 125 38.3911 124.565 38.1737C123.913 37.7389 123.913 37.0867 123.913 36.6519C123.913 35.9998 124.131 35.565 124.783 35.1302C125.218 34.6954 125.87 34.478 126.739 34.478C127.392 34.478 127.826 34.478 128.261 34.6954C128.696 34.9128 129.131 35.1302 129.348 35.565C129.565 35.9998 129.783 36.4345 129.783 36.8693H128.261C128.261 36.4345 128.044 35.9998 127.826 35.7824C127.609 35.565 127.174 35.3476 126.522 35.3476C126.087 35.3476 125.652 35.565 125.218 35.7824C125 35.9998 124.783 36.4345 124.783 36.6519C124.783 37.0867 125 37.3041 125.218 37.5215C125.435 37.7389 125.87 37.9563 126.739 38.1737C127.392 38.3911 128.044 38.6085 128.261 38.8259C128.696 39.0432 128.913 39.2606 129.131 39.6954C129.348 39.9128 129.348 40.3476 129.348 40.7824C129.348 41.4345 129.131 41.8693 128.479 42.3041C128.044 42.7389 127.392 42.9563 126.522 42.9563C125.87 42.9563 125.435 42.9563 125 42.7389C124.565 42.5215 124.131 42.3041 123.913 41.8693C123.696 41.4345 123.479 40.9998 123.479 40.565H124.565C124.565 40.9998 124.783 41.4346 125 41.6519C125.435 41.8693 125.87 42.0867 126.522 42.0867C127.174 42.0867 127.609 41.8693 127.826 41.6519C128.044 41.4346 128.261 41.2172 128.261 40.7824C128.261 40.3476 128.044 40.1302 127.826 39.9128C127.609 39.478 127.174 39.2606 126.522 39.0432Z" fill="#999999"/>
<path d="M136.305 39.0432C135.435 38.8259 134.783 38.3911 134.348 38.1737C133.913 37.7389 133.696 37.3041 133.696 36.6519C133.696 35.9998 133.913 35.565 134.565 35.1302C135 34.6954 135.652 34.478 136.522 34.478C137.174 34.478 137.609 34.478 138.044 34.6954C138.479 34.9128 138.913 35.1302 139.131 35.565C139.348 35.9998 139.565 36.4345 139.565 36.8693H138.479C138.479 36.4345 138.261 35.9998 138.044 35.7824C137.826 35.565 137.392 35.3476 136.739 35.3476C136.305 35.3476 135.87 35.565 135.435 35.7824C135 35.7824 134.783 36.2172 134.783 36.6519C134.783 37.0867 135 37.3041 135.218 37.5215C135.435 37.7389 135.87 37.9563 136.739 38.1737C137.392 38.3911 138.044 38.6085 138.261 38.8259C138.696 39.0432 138.913 39.2606 139.131 39.6954C139.348 39.9128 139.348 40.3476 139.348 40.7824C139.348 41.4345 139.131 41.8693 138.479 42.3041C138.044 42.7389 137.392 42.9563 136.522 42.9563C135.87 42.9563 135.435 42.9563 135 42.7389C134.565 42.5215 134.131 42.3041 133.913 41.8693C133.696 41.4345 133.479 40.9998 133.479 40.565H134.565C134.565 40.9998 134.783 41.4346 135 41.6519C135.435 41.8693 135.87 42.0867 136.522 42.0867C137.174 42.0867 137.609 41.8693 137.826 41.6519C138.044 41.4346 138.261 41.2172 138.261 40.7824C138.261 40.3476 138.044 40.1302 137.826 39.9128C137.609 39.478 137.174 39.2606 136.305 39.0432Z" fill="#999999"/>
<path d="M155.217 35.3476H152.609V42.5215H151.522V35.3476H148.913V34.478H155.217V35.3476Z" fill="#999999"/>
<path d="M165.87 42.5215H164.783V38.8259H160.652V42.5215H159.565V34.478H160.652V37.9563H164.783V34.478H165.87V42.5215Z" fill="#999999"/>
<path d="M175.653 38.8259H172.174V41.6519H176.088V42.5215H170.87V34.478H176.088V35.3476H172.174V37.9563H175.653V38.8259Z" fill="#999999"/>
<path d="M181.957 34.478L184.566 40.9998L187.174 34.478H188.479V42.5215H187.392V39.478V35.9998L184.783 42.5215H183.913L181.305 35.9998V39.478V42.5215H180.218V34.478H181.957Z" fill="#999999"/>
<path d="M198.262 38.8259H194.783V41.6519H198.914V42.5215H193.696V34.478H198.696V35.3476H194.783V37.9563H198.262V38.8259Z" fill="#999999"/>
<path d="M54.1313 17.4781H51.5226V23.3477H48.2617V7.26074H54.3487C56.3052 7.26074 57.8269 7.69553 58.6965 8.56509C59.7835 9.43466 60.2182 10.5216 60.2182 12.2607C60.2182 13.3477 60.0008 14.2173 59.5661 15.0868C59.1313 15.739 58.2617 16.3912 57.3922 16.826L60.8704 23.3477V23.5651H57.3922L54.1313 17.4781ZM51.5226 14.8694H54.1313C55.0008 14.8694 55.653 14.652 56.0878 14.2173C56.5226 13.7825 56.74 13.1303 56.74 12.4781C56.74 11.6086 56.5226 11.1738 56.0878 10.739C55.653 10.3042 55.0008 10.0868 54.1313 10.0868H51.5226V14.8694Z" fill="white"/>
<path d="M68.9141 23.565C68.6968 23.3476 68.6968 22.9129 68.6968 22.4781C67.8272 23.3476 66.9576 23.7824 65.6533 23.7824C64.5663 23.7824 63.4794 23.3476 62.8272 22.6955C61.9576 22.0433 61.7402 21.1737 61.7402 20.0868C61.7402 18.7824 62.175 17.9129 63.262 17.2607C64.1315 16.6085 65.6533 16.1737 67.3924 16.1737H68.9141V15.5215C68.9141 14.8694 68.6968 14.4346 68.4794 14.2172C68.262 13.7824 67.8272 13.7824 67.175 13.7824C66.7402 13.7824 66.3055 13.9998 65.8707 14.2172C65.2185 14.2172 65.0011 14.652 65.0011 15.0868H61.7402C61.7402 14.4346 61.9576 13.7824 62.3924 13.1302C62.8272 12.4781 63.4794 12.0433 64.1315 11.8259C65.0011 11.3911 65.8707 11.3911 66.7402 11.3911C68.262 11.3911 69.3489 11.8259 70.2185 12.4781C71.3055 13.1302 71.7402 14.2172 71.7402 15.5215V20.7389C71.7402 21.8259 71.9576 22.6955 72.175 23.3476V23.565H68.9141ZM66.3055 21.1737C66.7402 21.1737 67.175 21.1737 67.6098 20.9563C68.0446 20.7389 68.262 20.5215 68.4794 20.0868V17.9129H67.3924C65.8707 17.9129 65.0011 18.565 64.7837 19.652V19.8694C64.7837 20.3042 65.0011 20.5215 65.2185 20.9563C65.4359 21.1737 65.8707 21.1737 66.3055 21.1737Z" fill="white"/>
<path d="M73.2617 17.4781C73.2617 15.5215 73.6965 14.2172 74.5661 12.9129C75.4356 11.8259 76.5226 11.1737 78.0443 11.1737C79.1313 11.1737 80.2182 11.6085 80.8704 12.4781V6.39111H84.1313V23.565H81.3052L81.0878 22.2607C80.2182 23.3476 79.3487 23.7824 78.0443 23.7824C76.5226 23.7824 75.4356 23.1302 74.5661 22.0433C73.6965 20.9563 73.2617 19.4346 73.2617 17.4781ZM76.5226 17.6955C76.5226 18.7824 76.74 19.652 77.1748 20.3042C77.6095 20.9563 78.0443 21.1737 78.9139 21.1737C80.0008 21.1737 80.653 20.7389 81.0878 19.8694V15.0868C80.653 14.2172 80.0008 13.7824 78.9139 13.7824C77.1748 13.7824 76.5226 15.0868 76.5226 17.6955Z" fill="white"/>
<path d="M86.0879 8.34742C86.0879 7.91264 86.3053 7.47786 86.5227 7.26047C86.7401 7.04308 87.3922 6.82568 87.827 6.82568C88.4792 6.82568 88.914 7.04308 89.1314 7.26047C89.5662 7.47786 89.5662 7.91264 89.5662 8.34742C89.5662 8.78221 89.3488 9.21699 89.1314 9.65177C88.6966 9.86916 88.2618 10.0866 87.827 10.0866C87.3922 10.0866 86.9575 9.86916 86.5227 9.65177C86.3053 9.21699 86.0879 8.78221 86.0879 8.34742ZM89.5662 23.5648H86.3053V11.3909H89.5662V23.5648Z" fill="white"/>
<path d="M98.9138 22.2607C98.0442 23.1302 96.9572 23.7824 95.6529 23.7824C94.3486 23.7824 93.479 23.3476 92.6094 22.6955C91.9572 22.0433 91.5225 20.9563 91.5225 19.4346V11.3911H94.7833V19.2172C94.7833 20.5215 95.4355 21.1737 96.5225 21.1737C97.6094 21.1737 98.2616 20.7389 98.6964 20.0868V11.3911H101.957V23.3476H98.9138V22.2607Z" fill="white"/>
<path d="M110.436 20.0869C110.436 19.6521 110.218 19.4347 109.783 19.2173C109.349 18.9999 108.696 18.7825 107.827 18.5651C105.001 17.913 103.479 16.826 103.479 14.8695C103.479 13.7825 103.914 12.913 104.783 12.2608C105.653 11.6086 106.74 11.1738 108.262 11.1738C109.783 11.1738 111.088 11.6086 111.957 12.2608C112.827 12.913 113.262 13.9999 113.262 15.0869H110.001C110.001 14.6521 109.783 14.2173 109.566 13.9999C109.349 13.7825 108.914 13.5651 108.262 13.5651C107.827 13.5651 107.392 13.7825 106.957 13.9999C106.74 14.2173 106.523 14.6521 106.523 14.8695C106.523 15.3043 106.74 15.5217 106.957 15.739C107.392 15.9564 107.827 16.1738 108.697 16.3912C109.566 16.6086 110.218 16.826 110.653 16.826C112.392 17.4782 113.262 18.5651 113.262 20.0869C113.262 21.1738 112.827 22.0434 111.957 22.6956C111.088 23.3477 109.783 23.7825 108.262 23.7825C107.175 23.7825 106.305 23.5651 105.653 23.3477C104.783 22.913 104.349 22.4782 103.914 21.826C103.479 21.1738 103.262 20.5217 103.262 19.8695H106.305C106.305 20.5217 106.523 20.9564 106.957 21.1738C107.392 21.3912 107.827 21.6086 108.479 21.6086C109.131 21.6086 109.566 21.3912 109.783 21.1738C110.218 20.9564 110.436 20.5217 110.436 20.0869Z" fill="white"/>
<path d="M120.653 23.5651V7.26074H125.653C127.175 7.26074 128.262 7.47813 129.566 8.13031C130.436 8.99987 131.305 9.86944 131.958 10.9564C132.61 12.0434 132.827 13.5651 132.827 15.0868V15.739C132.827 17.2607 132.61 18.5651 131.958 19.652C131.305 20.739 130.436 21.826 129.349 22.4781C128.262 23.1303 126.958 23.3477 125.436 23.3477H120.653V23.5651ZM123.914 10.0868V20.9564H125.436C126.74 20.9564 127.827 20.5216 128.479 19.652C129.132 18.7825 129.566 17.4781 129.566 15.9564V15.0868C129.566 13.3477 129.132 12.2607 128.479 11.3912C127.827 10.5216 126.74 10.0868 125.436 10.0868H123.914Z" fill="white"/>
<path d="M134.783 8.34742C134.783 7.91264 135.001 7.47786 135.218 7.26047C135.435 7.04308 136.088 6.82568 136.522 6.82568C137.175 6.82568 137.609 7.04308 137.827 7.26047C138.044 7.47786 138.261 7.91264 138.261 8.34742C138.261 8.78221 138.044 9.21699 137.827 9.65177C137.392 9.86916 136.957 10.0866 136.522 10.0866C136.088 10.0866 135.435 9.86916 135.218 9.65177C134.783 9.21699 134.783 8.78221 134.783 8.34742ZM138.044 23.5648H134.783V11.3909H138.044V23.5648Z" fill="white"/>
<path d="M146.957 14.4347C146.522 14.4347 146.087 14.4347 145.87 14.4347C144.566 14.4347 143.913 14.8695 143.479 15.739V23.5651H140.218V11.3912H143.261V12.913C143.913 11.826 144.783 11.1738 145.87 11.1738C146.305 11.1738 146.522 11.1738 146.957 11.3912V14.4347Z" fill="white"/>
<path d="M153.48 23.7825C151.74 23.7825 150.219 23.3477 149.132 22.2608C148.045 21.1738 147.393 19.6521 147.393 17.913V17.4782C147.393 16.1738 147.61 15.0869 148.045 14.2173C148.48 13.3477 149.132 12.4782 150.001 12.0434C150.871 11.6086 151.74 11.1738 152.827 11.1738C154.566 11.1738 155.871 11.6086 156.74 12.6956C157.61 13.7825 158.262 15.3043 158.262 17.0434V18.5651H150.653C150.653 19.4347 151.088 20.0869 151.523 20.5217C151.958 20.9564 152.61 21.1738 153.48 21.1738C154.784 21.1738 155.653 20.739 156.306 19.8695L157.827 21.6086C157.393 22.2608 156.74 22.913 155.871 23.1304C155.001 23.3477 154.566 23.7825 153.48 23.7825ZM153.045 13.7825C152.393 13.7825 151.958 13.9999 151.523 14.4347C151.088 14.8695 150.871 15.5217 150.871 16.3912H155.436V16.1738C155.436 15.5217 155.219 14.8695 154.784 14.4347C154.349 13.9999 153.697 13.7825 153.045 13.7825Z" fill="white"/>
<path d="M164.783 21.1738C165.436 21.1738 165.87 20.9564 166.305 20.739C166.74 20.5217 166.957 20.0869 166.957 19.4347H170.001C170.001 20.3043 169.783 20.9564 169.349 21.6086C168.914 22.2608 168.262 22.913 167.609 23.1304C166.957 23.5651 166.088 23.7825 165.001 23.7825C163.262 23.7825 161.957 23.1304 160.87 22.0434C159.783 20.9564 159.349 19.4347 159.349 17.4782V17.2608C159.349 15.3043 159.783 13.9999 160.87 12.913C161.957 11.826 163.262 11.1738 165.001 11.1738C166.523 11.1738 167.609 11.6086 168.696 12.4782C169.566 13.3477 170.001 14.4347 170.001 15.9564H166.957C166.957 15.3043 166.74 14.8695 166.305 14.4347C165.87 13.9999 165.436 13.7825 164.783 13.7825C164.131 13.7825 163.479 13.9999 163.044 14.6521C162.609 15.3043 162.392 16.1738 162.392 17.2608V17.6956C162.392 18.9999 162.609 19.8695 163.044 20.3043C163.479 20.9564 163.914 21.1738 164.783 21.1738Z" fill="white"/>
<path d="M175.001 8.56494V11.6084H176.957V13.9997H175.001V20.0867C175.001 20.5215 175.001 20.9562 175.218 20.9562C175.435 20.9562 175.653 21.1736 176.088 21.1736C176.522 21.1736 176.74 21.1736 176.957 21.1736V23.5649C176.305 23.7823 175.653 23.7823 175.001 23.7823C172.827 23.7823 171.522 22.6954 171.522 20.3041V13.7823H169.783V11.391H171.74V8.56494H175.001Z" fill="white"/>
<path d="M177.609 17.4782C177.609 16.3912 177.827 15.3043 178.262 14.2173C178.696 13.3477 179.349 12.4782 180.218 12.0434C181.088 11.6086 182.175 11.1738 183.262 11.1738C184.783 11.1738 186.305 11.6086 187.175 12.6956C188.262 13.7825 188.696 15.0869 188.914 16.826V17.6956C188.914 19.4347 188.479 20.9564 187.392 22.0434C186.305 23.1304 185.001 23.7825 183.262 23.7825C181.522 23.7825 180.218 23.1304 179.131 22.0434C178.044 20.9564 177.609 19.4347 177.609 17.4782ZM180.87 17.6956C180.87 18.7825 181.088 19.6521 181.522 20.3043C181.957 20.9564 182.609 21.1738 183.262 21.1738C184.131 21.1738 184.566 20.9564 185.001 20.3043C185.435 19.6521 185.653 18.7825 185.653 17.4782C185.653 16.3912 185.435 15.5217 185.001 14.8695C184.783 14.2173 184.131 13.7825 183.262 13.7825C182.392 13.7825 181.957 13.9999 181.522 14.6521C181.088 15.3043 180.87 16.3912 180.87 17.6956Z" fill="white"/>
<path d="M197.175 14.4347C196.74 14.4347 196.305 14.4347 196.088 14.4347C194.783 14.4347 194.131 14.8695 193.696 15.739V23.5651H190.436V11.3912H193.479V12.913C194.131 11.826 195.001 11.1738 196.088 11.1738C196.522 11.1738 196.74 11.1738 197.175 11.3912V14.4347Z" fill="white"/>
<path d="M203.045 18.9997L205.219 11.6084H208.697L203.914 25.5214L203.697 26.1736C203.045 27.6954 201.74 28.5649 200.219 28.5649C199.784 28.5649 199.349 28.5649 198.697 28.3475V25.9562H199.132C199.784 25.9562 200.219 25.9562 200.436 25.7388C200.653 25.5214 200.871 25.304 201.088 24.8693L201.523 23.7823L197.393 11.8258H200.871L203.045 18.9997Z" fill="white"/>
</g>
<defs>
<linearGradient id="paint0_linear_3386_228" x1="17.0172" y1="39.6927" x2="9.50717" y2="32.5658" gradientUnits="userSpaceOnUse">
<stop stop-color="white"/>
<stop offset="1" stop-color="white" stop-opacity="0"/>
</linearGradient>
<linearGradient id="paint1_linear_3386_228" x1="13.8672" y1="40.5639" x2="14.2761" y2="49.0713" gradientUnits="userSpaceOnUse">
<stop stop-color="#A0A0A0"/>
<stop offset="1" stop-color="white" stop-opacity="0"/>
</linearGradient>
<clipPath id="clip0_3386_228">
<rect width="208.696" height="50" fill="white"/>
</clipPath>
</defs>
</svg>
